<svg xmlns="http://www.w3.org/2000/svg" width="1203.531" height="390.418" viewBox="0 0 1203.531 390.418">
  <g id="Group_25" data-name="Group 25" transform="translate(-145.31 -1842.672)">
    <g id="Group_16" data-name="Group 16" transform="translate(145.309 1842.672)">
      <g id="Group_11" data-name="Group 11" transform="translate(0 0)">
        <g id="Group_10" data-name="Group 10">
          <path id="Path_22" data-name="Path 22" d="M226.273,2236.76c-3.111,0-6.146-.038-9.23-.107a129.668,129.668,0,0,1-19.077-1.665,60.063,60.063,0,0,1-16.91-5.593,55.122,55.122,0,0,1-14.258-10.376,54.323,54.323,0,0,1-10.417-14.253,58.357,58.357,0,0,1-5.541-16.914,126.562,126.562,0,0,1-1.7-19.138c-.064-2.152-.15-9.317-.15-9.317V1923.619s.091-7.057.15-9.13a126.232,126.232,0,0,1,1.689-19.109,58.787,58.787,0,0,1,5.548-16.962,54.848,54.848,0,0,1,10.36-14.269,56.828,56.828,0,0,1,14.313-10.437,59.423,59.423,0,0,1,16.874-5.552,128.964,128.964,0,0,1,19.144-1.675l9.208-.124H1275.185l9.319.129a126.886,126.886,0,0,1,18.969,1.66,60.609,60.609,0,0,1,17.053,5.591,57.1,57.1,0,0,1,24.65,24.7,58.843,58.843,0,0,1,5.462,16.828,132.817,132.817,0,0,1,1.773,19.264c.03,2.892.03,5.994.03,9.085.08,3.827.08,7.471.08,11.143v213.61c0,3.707,0,7.325-.08,10.973,0,3.318,0,6.359-.041,9.489a130.031,130.031,0,0,1-1.743,18.916,58.607,58.607,0,0,1-5.512,17.046,55.962,55.962,0,0,1-10.365,14.144,55.213,55.213,0,0,1-14.283,10.437,59.892,59.892,0,0,1-17.024,5.611,128.2,128.2,0,0,1-19.079,1.665c-2.989.069-6.119.107-9.158.107l-11.066.021Z" transform="translate(-148.99 -1846.362)" fill="#fff"/>
        </g>
      </g>
      <g id="Group_15" data-name="Group 15" transform="translate(92.864 80.073)">
        <g id="Group_13" data-name="Group 13">
          <g id="Group_12" data-name="Group 12">
            <path id="Path_23" data-name="Path 23" d="M352.027,1985.814c-.255-28.076,22.988-41.74,24.052-42.38-13.162-19.193-33.568-21.818-40.735-22.022-17.14-1.8-33.755,10.258-42.49,10.258-8.9,0-22.349-10.078-36.83-9.779-18.64.289-36.085,11.081-45.652,27.843-19.74,34.174-5.016,84.4,13.894,112.027,9.46,13.526,20.516,28.638,34.983,28.1,14.156-.59,19.443-9.027,36.533-9.027,16.929,0,21.89,9.027,36.651,8.686,15.192-.248,24.763-13.586,33.891-27.242a111.863,111.863,0,0,0,15.5-31.564C381.468,2030.593,352.316,2019.476,352.027,1985.814Z" transform="translate(-200.997 -1867.618)"/>
            <path id="Path_24" data-name="Path 24" d="M284.613,1926.832c7.61-9.523,12.821-22.477,11.376-35.626-11.022.489-24.805,7.619-32.739,16.938-7.019,8.208-13.294,21.664-11.672,34.309C263.955,1943.373,276.667,1936.208,284.613,1926.832Z" transform="translate(-161.464 -1891.206)"/>
          </g>
        </g>
        <g id="Group_14" data-name="Group 14" transform="translate(249.607 93.398)">
          <path id="Path_25" data-name="Path 25" d="M421.163,2037.18H372.852l-11.6,34.26H340.786l45.76-126.743h21.261l45.76,126.743H432.755Zm-43.308-15.806h38.294l-18.877-55.6h-.528Z" transform="translate(-340.786 -1942.583)"/>
          <path id="Path_26" data-name="Path 26" d="M497.59,2010.56c0,28.716-15.371,47.164-38.564,47.164-13.167,0-23.622-5.889-29.075-16.166h-.437v45.771H410.545V1964.352H428.9v15.369h.348c5.273-9.917,16.516-16.337,29.425-16.337C482.13,1963.384,497.59,1981.924,497.59,2010.56Zm-19.5,0c0-18.709-9.667-31.009-24.42-31.009-14.492,0-24.24,12.559-24.24,31.009,0,18.619,9.748,31.088,24.24,31.088C468.426,2041.647,478.093,2029.438,478.093,2010.56Z" transform="translate(-285.983 -1927.901)"/>
          <path id="Path_27" data-name="Path 27" d="M554.549,2010.56c0,28.716-15.371,47.164-38.564,47.164-13.167,0-23.622-5.889-29.075-16.166h-.437v45.771H467.5V1964.352h18.359v15.369h.35c5.271-9.917,16.515-16.337,29.423-16.337C539.088,1963.384,554.549,1981.924,554.549,2010.56Zm-19.5,0c0-18.709-9.667-31.009-24.42-31.009-14.492,0-24.24,12.559-24.24,31.009,0,18.619,9.748,31.088,24.24,31.088C525.384,2041.647,535.051,2029.438,535.051,2010.56Z" transform="translate(-241.236 -1927.901)"/>
          <path id="Path_28" data-name="Path 28" d="M562.44,2037.056c1.405,12.567,13.615,20.821,30.3,20.821,15.986,0,27.49-8.254,27.49-19.584,0-9.84-6.937-15.73-23.365-19.767l-16.426-3.959c-23.274-5.619-34.078-16.5-34.078-34.166,0-21.869,19.058-36.89,46.119-36.89,26.781,0,45.141,15.021,45.761,36.89H619.093c-1.147-12.647-11.6-20.284-26.88-20.284s-25.736,7.725-25.736,18.968c0,8.961,6.678,14.235,23.015,18.269l13.963,3.429c26.006,6.152,36.811,16.6,36.811,35.137,0,23.712-18.888,38.563-48.931,38.563-28.107,0-47.085-14.5-48.311-37.427Z" transform="translate(-181.909 -1943.512)"/>
          <path id="Path_29" data-name="Path 29" d="M634.7,1951.679v21.868h17.572v15.02H634.7v50.942c0,7.915,3.52,11.6,11.244,11.6a58.884,58.884,0,0,0,6.239-.438V2065.6a51.906,51.906,0,0,1-10.535.88c-18.71,0-26.006-7.028-26.006-24.949v-52.966H602.21v-15.02h13.435v-21.868Z" transform="translate(-135.411 -1937.095)"/>
          <path id="Path_30" data-name="Path 30" d="M635.947,2010.634c0-29.074,17.124-47.345,43.827-47.345,26.792,0,43.835,18.271,43.835,47.345,0,29.154-16.954,47.347-43.835,47.347S635.947,2039.788,635.947,2010.634Zm68.337,0c0-19.944-9.141-31.716-24.51-31.716s-24.5,11.861-24.5,31.716c0,20.023,9.129,31.705,24.5,31.705S704.285,2030.657,704.285,2010.634Z" transform="translate(-108.907 -1927.975)"/>
          <path id="Path_31" data-name="Path 31" d="M693.8,1964.352h18.09v15.728h.439c2.9-10.455,11.332-16.7,22.228-16.7a29.125,29.125,0,0,1,6.5.709v17.741a26.479,26.479,0,0,0-8.522-1.146c-12.21,0-19.766,8.261-19.766,21.259v54.81H693.8Z" transform="translate(-63.458 -1927.901)"/>
          <path id="Path_32" data-name="Path 32" d="M805.916,2029.693c-2.552,16.772-18.888,28.287-39.791,28.287-26.881,0-43.567-18.014-43.567-46.906,0-28.985,16.775-47.785,42.771-47.785,25.566,0,41.642,17.563,41.642,45.582v6.5H741.705v1.146c0,15.809,9.928,26.176,24.859,26.176,10.535,0,18.8-5,21.34-13Zm-64.12-27.581h46.2c-.438-14.144-9.488-23.453-22.665-23.453C752.242,1978.659,742.762,1988.148,741.8,2002.112Z" transform="translate(-40.865 -1927.975)"/>
        </g>
      </g>
    </g>
    <g id="Group_18" data-name="Group 18" transform="translate(500.475 1919.854)">
      <g id="Group_17" data-name="Group 17" transform="translate(0 0)">
        <path id="Path_33" data-name="Path 33" d="M369.894,1891.267c18.059,0,28.656,11.1,28.656,30.263,0,19.454-10.516,30.638-28.656,30.638h-22v-60.9Zm-12.54,52.288h11.483c12.738,0,20.084-7.934,20.084-21.9,0-13.759-7.465-21.778-20.084-21.778H357.354Z" transform="translate(-347.895 -1888.268)"/>
        <path id="Path_34" data-name="Path 34" d="M382.247,1922.982c0-14.816,8.273-23.846,21.688-23.846,13.386,0,21.659,9.029,21.659,23.846,0,14.9-8.233,23.887-21.659,23.887C390.48,1946.869,382.247,1937.88,382.247,1922.982Zm34.018,0c0-9.962-4.475-15.786-12.329-15.786-7.884,0-12.319,5.824-12.319,15.786,0,10.043,4.435,15.823,12.319,15.823C411.79,1938.806,416.265,1932.984,416.265,1922.982Z" transform="translate(-320.908 -1882.083)"/>
        <path id="Path_35" data-name="Path 35" d="M461.263,1945.591h-9.411l-9.5-33.849h-.718l-9.46,33.849h-9.319l-12.667-45.957h9.2l8.232,35.069h.678l9.45-35.069h8.7l9.45,35.069h.718l8.192-35.069h9.071Z" transform="translate(-298.955 -1881.693)"/>
        <path id="Path_36" data-name="Path 36" d="M451.827,1900.023h8.731v7.3h.677c2.234-5.107,6.8-8.187,13.715-8.187,10.257,0,15.908,6.159,15.908,17.094v29.75h-9.071v-27.474c0-7.386-3.209-11.06-9.917-11.06S460.9,1911.925,460.9,1919.1v26.885h-9.071Z" transform="translate(-266.246 -1882.083)"/>
        <path id="Path_37" data-name="Path 37" d="M481.78,1889.587h9.071v63.9H481.78Z" transform="translate(-242.715 -1889.587)"/>
        <path id="Path_38" data-name="Path 38" d="M493.921,1922.982c0-14.816,8.272-23.846,21.688-23.846,13.386,0,21.665,9.029,21.665,23.846,0,14.9-8.238,23.887-21.665,23.887C502.154,1946.869,493.921,1937.88,493.921,1922.982Zm34.017,0c0-9.962-4.475-15.786-12.33-15.786-7.883,0-12.319,5.824-12.319,15.786,0,10.043,4.436,15.823,12.319,15.823C523.464,1938.806,527.939,1932.984,527.939,1922.982Z" transform="translate(-233.177 -1882.083)"/>
        <path id="Path_39" data-name="Path 39" d="M523.548,1932.984c0-8.272,6.159-13.042,17.094-13.719l12.449-.718v-3.969c0-4.851-3.211-7.594-9.41-7.594-5.062,0-8.571,1.859-9.578,5.106h-8.781c.927-7.894,8.353-12.955,18.779-12.955,11.522,0,18.021,5.735,18.021,15.442v31.4h-8.732v-6.457h-.718c-2.741,4.6-7.764,7.216-13.8,7.216C530.007,1946.739,523.548,1941.381,523.548,1932.984Zm29.543-3.927v-3.843l-11.224.719c-6.329.424-9.2,2.575-9.2,6.627,0,4.139,3.589,6.544,8.522,6.544C548.027,1939.1,553.091,1934.755,553.091,1929.058Z" transform="translate(-209.902 -1882.083)"/>
        <path id="Path_40" data-name="Path 40" d="M551.826,1930.487c0-14.521,7.466-23.721,19.077-23.721,6.289,0,11.6,3,14.094,8.063h.679v-25.242h9.069v63.9h-8.69v-7.261h-.718c-2.741,5.022-8.1,8.02-14.433,8.02C559.211,1954.246,551.826,1945.044,551.826,1930.487Zm9.369,0c0,9.748,4.6,15.614,12.28,15.614,7.646,0,12.371-5.949,12.371-15.574,0-9.577-4.775-15.613-12.371-15.613C565.841,1914.914,561.2,1920.819,561.2,1930.487Z" transform="translate(-187.686 -1889.587)"/>
        <path id="Path_41" data-name="Path 41" d="M596.879,1922.982c0-14.816,8.273-23.846,21.688-23.846,13.386,0,21.659,9.029,21.659,23.846,0,14.9-8.234,23.887-21.659,23.887C605.113,1946.869,596.879,1937.88,596.879,1922.982Zm34.018,0c0-9.962-4.475-15.786-12.33-15.786-7.884,0-12.319,5.824-12.319,15.786,0,10.043,4.436,15.823,12.319,15.823C626.422,1938.806,630.9,1932.984,630.9,1922.982Z" transform="translate(-152.293 -1882.083)"/>
        <path id="Path_42" data-name="Path 42" d="M627.971,1900.023H636.7v7.3h.677c2.233-5.107,6.8-8.187,13.715-8.187,10.256,0,15.908,6.159,15.908,17.094v29.75h-9.071v-27.474c0-7.386-3.208-11.06-9.918-11.06s-10.974,4.478-10.974,11.648v26.885h-9.069Z" transform="translate(-127.867 -1882.083)"/>
        <path id="Path_43" data-name="Path 43" d="M685.739,1893.226v11.652H695.7v7.64h-9.957v23.631c0,4.817,1.983,6.924,6.5,6.924a30.405,30.405,0,0,0,3.459-.209v7.555a29.779,29.779,0,0,1-4.934.463c-10.087,0-14.1-3.549-14.1-12.408v-25.955h-7.3v-7.64h7.3v-11.652Z" transform="translate(-95.351 -1886.728)"/>
        <path id="Path_44" data-name="Path 44" d="M691.048,1889.587h8.991v25.327h.717c2.233-5.152,7.086-8.234,14.014-8.234,9.788,0,15.828,6.206,15.828,17.136v29.672h-9.08v-27.435c0-7.341-3.419-11.059-9.828-11.059-7.436,0-11.573,4.689-11.573,11.651v26.842h-9.069Z" transform="translate(-78.313 -1889.587)"/>
        <path id="Path_45" data-name="Path 45" d="M760.917,1933.575c-2.062,8.229-9.409,13.294-19.913,13.294-13.167,0-21.231-9.029-21.231-23.723s8.234-24.01,21.19-24.01c12.789,0,20.5,8.734,20.5,23.166v3.168H729.012v.506c.3,8.06,4.983,13.168,12.24,13.168,5.492,0,9.249-1.983,10.935-5.569Zm-31.9-14.812h23.215c-.209-7.219-4.6-11.906-11.314-11.906S729.521,1911.586,729.012,1918.763Z" transform="translate(-55.747 -1882.083)"/>
      </g>
    </g>
  </g>
</svg>
