<svg id="Layer_1" data-name="Layer 1" xmlns="http://www.w3.org/2000/svg" viewBox="0 0 512 512"><defs><style>.cls-1{fill:#fff;}</style></defs><title>Artboard 8</title><path class="cls-1" d="M452.13,417.73v-8.39c0-.86,0-1.71.06-2.63a26.6,26.6,0,0,0-2.82-15.23,43.06,43.06,0,0,0-20-14.84c-1.71-.79-3.26-1.53-4.64-2.26-9.47-5.13-18.95-10.18-28.3-15.53A111.72,111.72,0,0,0,361.52,345a124.41,124.41,0,0,1-37.25-17.43V314.44c1.25-1.2,2.44-2.4,3.84-3.6,25-21.33,24.27-41.81,23.35-59.93a56.12,56.12,0,0,0,31.14-36c1.88-11.27,4.58-38.05-10.72-43.11a23.11,23.11,0,0,0-13.48-.27c.05-7.76-.14-16.61-.67-26.9-3-57.58-63.27-75.12-95.07-76.35H249C217.53,69.5,157.23,87,154.28,144.62c-.52,10.3-.68,19.15-.68,26.9a22.67,22.67,0,0,0-13.35.25c-15.43,5.06-12.8,31.83-10.88,43.52a56.51,56.51,0,0,0,31.14,35.62c-.91,18.1-1.63,38.57,23.36,59.93,1.4,1.19,2.56,2.39,3.84,3.59v13.18A125,125,0,0,1,150.45,345a111.82,111.82,0,0,0-34.89,13.82c-9.39,5.35-18.83,10.44-28.3,15.53-1.38.73-3,1.47-4.63,2.27a43,43,0,0,0-20,14.84,26.6,26.6,0,0,0-2.82,15.23c0,.85.07,1.75.06,2.63v8.38a26.28,26.28,0,0,0,26.41,26H425.72A26.27,26.27,0,0,0,452.13,417.73ZM365.64,187.79a58.44,58.44,0,0,1,.22,23.89,37.41,37.41,0,0,1-14.22,19.17c.45-3.46,1.1-6.82,1.87-10.65a212.54,212.54,0,0,0,4.2-29.7A12.88,12.88,0,0,1,365.64,187.79ZM146.15,212.13a57.89,57.89,0,0,1,.25-24.34,12.48,12.48,0,0,1,7.89,2.66,212.82,212.82,0,0,0,4.2,29.72c.77,3.81,1.42,7.2,1.87,10.67A38,38,0,0,1,146.15,212.13Zm31.46,39c.09-1.64.1-3.35.18-5q0-.62,0-1.23c.06-1.84.18-3.63.18-5.5a104.38,104.38,0,0,0-2.79-22.54A195.32,195.32,0,0,1,171,185.59v-.09a381.22,381.22,0,0,1,.26-40c2.93-56.38,75.31-60,78-60.17h13c3.09.13,75.47,3.8,78.37,60.18a384,384,0,0,1,.26,40v.09a196.19,196.19,0,0,1-4.14,31.2A104.55,104.55,0,0,0,334,239.35c0,1.87.11,3.66.18,5.5a8.28,8.28,0,0,0,0,1.22c.07,1.71.09,3.42.17,5,.91,17.77,1.56,30.6-17.37,46.78a138.58,138.58,0,0,0-23.19,26.29c-8.78,12.21-12.85,17.16-24.48,17.16H242.69c-11.63,0-15.68-4.95-24.52-17.17A139.2,139.2,0,0,0,195,297.86C176.06,281.7,176.71,268.86,177.61,251.09ZM76.94,417.68v-8.25c0-1.12,0-2.23-.08-3.36a13.18,13.18,0,0,1,.51-6,33.91,33.91,0,0,1,12.56-8c2-.92,3.81-1.8,5.42-2.66,9.62-5.12,19.24-10.33,28.71-15.75a95.79,95.79,0,0,1,29.62-11.86c1.54-.29,3.11-.68,4.7-1.11-1.09,18.32.55,46.14,16.43,66H86.28A9.18,9.18,0,0,1,76.94,417.68Zm230.81,9H200.88c-28.37-15.36-26.57-57.07-24.74-72.88,4.19-2,8.14-4.15,11.61-6.16v11.88a8.54,8.54,0,0,0,17.07,0V334.76c8.83,12.25,17.39,23.64,37.87,23.64h26.62c20.48,0,29-11.39,37.89-23.62v24.75a8.54,8.54,0,0,0,17.07,0v-11.9c3.47,2,7.42,4.14,11.61,6.16,1.81,15.81,3.61,57.48-24.75,72.88Zm127.39-20.6c0,1.13-.09,2.24-.08,3.36v8.26a9.19,9.19,0,0,1-9.34,9H337.19c15.88-19.86,17.52-47.68,16.43-66,1.59.44,3.16.85,4.71,1.12a95.78,95.78,0,0,1,29.61,11.88c9.47,5.42,19.09,10.59,28.71,15.75,1.61.85,3.46,1.7,5.42,2.66a33.91,33.91,0,0,1,12.56,8A13.18,13.18,0,0,1,435.14,406.07Z"/><path class="cls-1" d="M8.54,76.8a8.53,8.53,0,0,0,8.53-8.53V42.67a25.6,25.6,0,0,1,25.6-25.6h25.6A8.54,8.54,0,0,0,68.27,0H42.67A42.72,42.72,0,0,0,0,42.67v25.6A8.53,8.53,0,0,0,8.54,76.8Z"/><path class="cls-1" d="M68.27,494.93H42.67a25.6,25.6,0,0,1-25.6-25.6v-25.6a8.54,8.54,0,0,0-17.07,0v25.6A42.72,42.72,0,0,0,42.67,512h25.6a8.54,8.54,0,0,0,0-17.07Z"/><path class="cls-1" d="M503.46,435.2a8.53,8.53,0,0,0-8.53,8.53v25.6a25.6,25.6,0,0,1-25.6,25.6h-25.6a8.54,8.54,0,0,0,0,17.07h25.6A42.72,42.72,0,0,0,512,469.33v-25.6A8.53,8.53,0,0,0,503.46,435.2Z"/><path class="cls-1" d="M469.33,0h-25.6a8.54,8.54,0,0,0,0,17.07h25.6a25.6,25.6,0,0,1,25.6,25.6v25.6a8.54,8.54,0,0,0,17.07,0V42.67A42.72,42.72,0,0,0,469.33,0Z"/><path class="cls-1" d="M51.2,51.2H68.27a8.54,8.54,0,0,0,0-17.07H51.2A17.07,17.07,0,0,0,34.13,51.2V68.27a8.54,8.54,0,0,0,17.07,0Z"/><path class="cls-1" d="M68.27,460.8H51.2V443.73a8.54,8.54,0,0,0-17.07,0V460.8A17.07,17.07,0,0,0,51.2,477.87H68.27a8.54,8.54,0,0,0,0-17.07Z"/><path class="cls-1" d="M469.33,435.2a8.53,8.53,0,0,0-8.53,8.53V460.8H443.73a8.54,8.54,0,0,0,0,17.07H460.8a17.07,17.07,0,0,0,17.07-17.07V443.73A8.53,8.53,0,0,0,469.33,435.2Z"/><path class="cls-1" d="M477.87,51.2A17.07,17.07,0,0,0,460.8,34.13H443.73a8.54,8.54,0,0,0,0,17.07H460.8V68.27a8.54,8.54,0,0,0,17.07,0Z"/><path class="cls-1" d="M256,238.93a68.27,68.27,0,1,0-68.27-68.26A68.27,68.27,0,0,0,256,238.93Zm0-119.47a51.21,51.21,0,1,1-51.2,51.21A51.2,51.2,0,0,1,256,119.46Z"/><path class="cls-1" d="M241.43,202.3a8.55,8.55,0,0,0,6,2.5h.48a8.55,8.55,0,0,0,6.19-3.19l34.14-42.67a8.54,8.54,0,0,0-13.34-10.67L246.78,183.5l-10.33-10.32a8.53,8.53,0,0,0-12.07,12.06Z"/><path class="cls-1" d="M162.13,8.54a8.53,8.53,0,0,0,8.54,8.53H341.33a8.54,8.54,0,1,0,0-17.07H170.67A8.54,8.54,0,0,0,162.13,8.54Z"/><path class="cls-1" d="M187.73,34.13a8.54,8.54,0,0,0,0,17.07H324.27a8.54,8.54,0,0,0,0-17.07Z"/><path class="cls-1" d="M324.27,477.87a8.54,8.54,0,0,0,0-17.07H187.73a8.54,8.54,0,0,0,0,17.07Z"/><path class="cls-1" d="M341.33,494.93H170.67a8.54,8.54,0,1,0,0,17.07H341.33a8.54,8.54,0,1,0,0-17.07Z"/><path class="cls-1" d="M8.54,349.87a8.53,8.53,0,0,0,8.53-8.54V170.67a8.54,8.54,0,1,0-17.07,0V341.33A8.54,8.54,0,0,0,8.54,349.87Z"/><path class="cls-1" d="M42.67,179.2a8.53,8.53,0,0,0-8.54,8.53V324.27a8.54,8.54,0,0,0,17.07,0V187.73A8.53,8.53,0,0,0,42.67,179.2Z"/><path class="cls-1" d="M477.87,187.73a8.54,8.54,0,0,0-17.07,0V324.27a8.54,8.54,0,0,0,17.07,0Z"/><path class="cls-1" d="M503.46,162.13a8.53,8.53,0,0,0-8.53,8.54V341.33a8.54,8.54,0,1,0,17.07,0V170.67A8.54,8.54,0,0,0,503.46,162.13Z"/></svg>