<svg xmlns="http://www.w3.org/2000/svg" xmlns:xlink="http://www.w3.org/1999/xlink" width="1203.528" height="390.42" viewBox="0 0 1203.528 390.42">
  <defs>
    <linearGradient id="linear-gradient" x1="0.808" y1="0.5" x2="-1.573" y2="0.5" gradientUnits="objectBoundingBox">
      <stop offset="0" stop-color="gold"/>
      <stop offset="0.075" stop-color="#fece00"/>
      <stop offset="0.48" stop-color="#fca704"/>
      <stop offset="0.803" stop-color="#fa8e07"/>
      <stop offset="1" stop-color="#fa8608"/>
    </linearGradient>
    <linearGradient id="linear-gradient-2" x1="0.862" y1="0.178" x2="-0.501" y2="1.948" gradientUnits="objectBoundingBox">
      <stop offset="0" stop-color="#e82b36"/>
      <stop offset="1" stop-color="#b4005a"/>
    </linearGradient>
    <linearGradient id="linear-gradient-3" x1="-0.507" y1="-0.956" x2="0.606" y2="0.489" gradientUnits="objectBoundingBox">
      <stop offset="0" stop-color="#2f8e5b"/>
      <stop offset="0.39" stop-color="#4ea157"/>
      <stop offset="0.768" stop-color="#67b054"/>
      <stop offset="1" stop-color="#70b653"/>
    </linearGradient>
  </defs>
  <g id="Group_26" data-name="Group 26" transform="translate(-900 -1841.328)">
    <path id="Path_7" data-name="Path 7" d="M2058.953,2231.748H944.574c-24.516,0-44.574-21.96-44.574-48.8V1890.13c0-26.842,20.058-48.8,44.574-48.8H2058.953c24.516,0,44.575,21.96,44.575,48.8v292.813C2103.528,2209.788,2083.468,2231.748,2058.953,2231.748Z" transform="translate(0 0)" fill="#fff"/>
    <g id="Group_5" data-name="Group 5" transform="translate(1268.654 1922.517)">
      <path id="Path_9" data-name="Path 9" d="M1163.6,1919.229q0,11.2-6.642,17.855-7.551,7.912-19.652,7.914a27.941,27.941,0,1,1,0-55.881,27.6,27.6,0,0,1,10.981,2.243,22.073,22.073,0,0,1,8.367,5.976l-4.7,4.705q-5.317-6.348-14.646-6.345a20.317,20.317,0,0,0-14.607,5.937q-6.166,5.944-6.164,15.427t6.164,15.427a21.3,21.3,0,0,0,29.547-.035q3.881-3.89,4.484-10.835H1137.3v-6.424h25.919A22.669,22.669,0,0,1,1163.6,1919.229Z" transform="translate(-1109.517 -1889.116)" stroke="#000" stroke-miterlimit="10" stroke-width="0.2"/>
      <path id="Path_10" data-name="Path 10" d="M1177.087,1896.371h-24.359v16.957h21.966v6.428h-21.966v16.959h24.359v6.572h-31.228V1889.8h31.228Z" transform="translate(-1081.913 -1888.601)" stroke="#000" stroke-miterlimit="10" stroke-width="0.2"/>
      <path id="Path_11" data-name="Path 11" d="M1189.5,1943.287h-6.877v-46.916h-14.941V1889.8h36.755v6.574H1189.5Z" transform="translate(-1065.34 -1888.601)" stroke="#000" stroke-miterlimit="10" stroke-width="0.2"/>
      <path id="Path_12" data-name="Path 12" d="M1203.685,1943.287V1889.8h6.871v53.49Z" transform="translate(-1037.992 -1888.601)" stroke="#000" stroke-miterlimit="10" stroke-width="0.2"/>
      <path id="Path_13" data-name="Path 13" d="M1234.334,1943.287h-6.876v-46.916h-14.94V1889.8h36.757v6.574h-14.94Z" transform="translate(-1031.284 -1888.601)" stroke="#000" stroke-miterlimit="10" stroke-width="0.2"/>
      <path id="Path_14" data-name="Path 14" d="M1293.285,1936.893a27.777,27.777,0,0,1-39.22,0,28.9,28.9,0,0,1,0-39.666,27.677,27.677,0,0,1,39.186.035,28.811,28.811,0,0,1,.034,39.63Zm-34.146-4.479a20.568,20.568,0,0,0,29.06,0q5.943-6.017,5.948-15.356t-5.948-15.352a20.566,20.566,0,0,0-29.06,0q-5.931,6.011-5.937,15.352T1259.14,1932.414Z" transform="translate(-1005.709 -1889.116)" stroke="#000" stroke-miterlimit="10" stroke-width="0.2"/>
      <path id="Path_15" data-name="Path 15" d="M1282.913,1943.287V1889.8h8.369l25.995,41.611h.3l-.3-10.308v-31.3h6.878v53.49h-7.173l-27.2-43.625h-.294l.294,10.307v33.318Z" transform="translate(-977.813 -1888.601)" stroke="#000" stroke-miterlimit="10" stroke-width="0.2"/>
    </g>
    <path id="Path_16" data-name="Path 16" d="M1349.489,1982.643c-20.969,0-38.06,15.941-38.06,37.914,0,21.832,17.092,37.918,38.06,37.918s38.063-16.086,38.063-37.918C1387.551,1998.583,1370.459,1982.643,1349.489,1982.643Zm0,60.9c-11.49,0-21.4-9.479-21.4-22.981,0-13.644,9.91-22.98,21.4-22.98s21.4,9.336,21.4,22.98C1370.887,2034.059,1360.977,2043.538,1349.489,2043.538Zm-83.027-60.9c-20.97,0-38.063,15.941-38.063,37.914,0,21.832,17.093,37.918,38.063,37.918s38.059-16.086,38.059-37.918C1304.521,1998.583,1287.43,1982.643,1266.461,1982.643Zm0,60.9c-11.492,0-21.4-9.479-21.4-22.981,0-13.644,9.91-22.98,21.4-22.98s21.4,9.336,21.4,22.98C1287.861,2034.059,1277.949,2043.538,1266.461,2043.538Zm-98.769-49.263v16.086h38.492c-1.148,9.047-4.164,15.654-8.761,20.249-5.6,5.6-14.362,11.779-29.732,11.779-23.7,0-42.225-19.1-42.225-42.8s18.528-42.8,42.225-42.8a41.026,41.026,0,0,1,29.014,11.491l11.345-11.345c-9.622-9.193-22.4-16.231-40.359-16.231-32.459,0-59.749,26.427-59.749,58.885s27.29,58.886,59.749,58.886c17.523,0,30.737-5.746,41.077-16.516,10.629-10.629,13.932-25.566,13.932-37.63a52.339,52.339,0,0,0-.862-10.053Zm403.926,12.5c-3.161-8.475-12.784-24.128-32.461-24.128-19.535,0-35.762,15.368-35.762,37.914,0,21.257,16.086,37.918,37.63,37.918a37.719,37.719,0,0,0,31.6-16.8l-12.926-8.617c-4.31,6.318-10.2,10.483-18.671,10.483s-14.508-3.878-18.386-11.491l50.7-20.969Zm-51.7,12.637c-.432-14.65,11.344-22.116,19.818-22.116,6.609,0,12.208,3.3,14.076,8.043Zm-41.221,36.769h16.658V1944.726h-16.658Zm-27.289-65.061h-.575c-3.733-4.454-10.914-8.473-19.965-8.473-18.957,0-36.336,16.657-36.336,38.057,0,21.259,17.379,37.775,36.336,37.775,9.051,0,16.231-4.02,19.965-8.617h.575v5.457c0,14.507-7.757,22.263-20.254,22.263-10.2,0-16.516-7.326-19.1-13.5l-14.506,6.033a36.132,36.132,0,0,0,33.606,22.4c19.534,0,36.053-11.489,36.053-39.494v-68.083h-15.8Zm-19.1,52.422c-11.488,0-21.113-9.624-21.113-22.838,0-13.353,9.625-23.123,21.113-23.123,11.346,0,20.251,9.769,20.251,23.123C1452.552,2033.914,1443.647,2043.538,1432.3,2043.538Zm217.357-98.81H1609.8v111.449h16.633V2013.95h23.228c18.44,0,36.562-13.347,36.562-34.612S1668.1,1944.728,1649.658,1944.728Zm.429,53.713H1626.43v-38.2h23.658a19.106,19.106,0,1,1,0,38.2Zm102.807-16.005c-12.046,0-24.52,5.306-29.681,17.064l14.77,6.164c3.152-6.164,9.031-8.173,15.2-8.173,8.6,0,17.348,5.163,17.493,14.339v1.147a36.8,36.8,0,0,0-17.349-4.3c-15.916,0-32.117,8.745-32.117,25.092,0,14.91,13.048,24.517,27.674,24.517,11.184,0,17.348-5.019,21.22-10.9h.573v8.6h16.059v-42.729C1786.73,1993.476,1771.961,1982.435,1752.894,1982.435Zm-2.007,61.081c-5.45,0-13.049-2.723-13.049-9.463,0-8.6,9.463-11.9,17.636-11.9,7.313,0,10.754,1.579,15.2,3.727A20.166,20.166,0,0,1,1750.887,2043.516Zm94.346-58.644-19.071,48.321h-.573l-19.786-48.321h-17.923l29.68,67.535-16.92,37.566h17.349l45.739-105.1Zm-149.835,71.3h16.631V1944.728H1695.4Z" transform="translate(157.943 67.151)"/>
    <g id="Group_8" data-name="Group 8" transform="translate(988.904 1921.982)">
      <g id="Group_7" data-name="Group 7" transform="translate(0 0)">
        <g id="Group_6" data-name="Group 6">
          <path id="Path_17" data-name="Path 17" d="M954.651,1892.846c-2.594,2.742-4.125,7-4.125,12.518v197c0,5.516,1.531,9.771,4.125,12.516l.657.641,110.356-110.356v-2.6L955.309,1892.2Z" transform="translate(-950.527 -1889.307)" fill="#40bff2"/>
          <path id="Path_18" data-name="Path 18" d="M1052.744,2010.209l-36.781-36.8v-2.6l36.792-36.794.833.471,43.584,24.764c12.447,7.074,12.447,18.647,0,25.72l-43.586,24.765Z" transform="translate(-900.825 -1857.551)" fill="url(#linear-gradient)"/>
          <path id="Path_19" data-name="Path 19" d="M1101.506,1993.291l-37.623-37.629-111.013,111.02c4.106,4.343,10.879,4.88,18.511.544l130.125-73.936" transform="translate(-948.746 -1841.108)" fill="url(#linear-gradient-2)"/>
          <path id="Path_20" data-name="Path 20" d="M1101.508,1967.49l-130.127-73.939c-7.631-4.334-14.405-3.8-18.511.546l111.013,111.016Z" transform="translate(-948.746 -1890.557)" fill="url(#linear-gradient-3)"/>
        </g>
      </g>
    </g>
  </g>
</svg>
