<svg xmlns="http://www.w3.org/2000/svg" viewBox="0 0 250 300"><defs><style>.cls-1{fill:#ff385a;}</style></defs><title>logomark1</title><g id="Layer_2" data-name="Layer 2"><g id="Layer_1-2" data-name="Layer 1"><path class="cls-1" d="M250,236.3v54.48A164.46,164.46,0,0,1,195.18,300q-37.73,0-79-16.17C73.2,267,34.1,268.08,0,287.2v-55c41.37-15.41,86.47-13.73,134.45,5.1,43.43,17.05,82.32,16.74,115.55-1"/><path class="cls-1" d="M125,198.38A125.14,125.14,0,0,1,0,73.38H57.69a67.31,67.31,0,0,0,134.62,0H250a125.14,125.14,0,0,1-125,125"/><rect class="cls-1" width="250" height="50"/></g></g></svg>