<svg xmlns="http://www.w3.org/2000/svg" viewBox="0 0 1300 300"><defs><style>.cls-1{fill:#ff385a;}</style></defs><title>logo-new</title><g id="Layer_2" data-name="Layer 2"><g id="Layer_1-2" data-name="Layer 1"><path class="cls-1" d="M250,236.3v54.48A164.46,164.46,0,0,1,195.18,300q-37.73,0-79-16.17C73.2,267,34.1,268.08,0,287.2v-55c41.37-15.41,86.47-13.73,134.45,5.1,43.43,17.05,82.32,16.74,115.55-1"/><path class="cls-1" d="M125,200A125.14,125.14,0,0,1,0,75H57.69a67.31,67.31,0,0,0,134.62,0H250A125.14,125.14,0,0,1,125,200"/><rect class="cls-1" width="250" height="50"/><path class="cls-1" d="M355.3,205.09q-23.67,0-39.49-15.92T300,150q0-23.46,15.81-39.28T355.3,94.91a54.27,54.27,0,0,1,27.86,7.33A47.35,47.35,0,0,1,402,121.93l-19.48,11.31a26.79,26.79,0,0,0-10.79-11.83,32,32,0,0,0-16.65-4.3,31.24,31.24,0,0,0-23.15,9.43Q322.63,136,322.62,150t9.32,23.46a31.28,31.28,0,0,0,23.15,9.43,32.12,32.12,0,0,0,16.65-4.4A28.66,28.66,0,0,0,383,166.76l19.48,11.1a49.82,49.82,0,0,1-19.27,19.9,54.27,54.27,0,0,1-27.86,7.33"/><path class="cls-1" d="M461.29,205.09q-23,0-39.17-15.92T406,150q0-23.25,16.13-39.17t39.17-15.92q23.25,0,39.28,15.92t16,39.17q0,23.25-16,39.17t-39.28,15.92M438,173.67a33.38,33.38,0,0,0,46.5,0Q494,164.25,494,150t-9.43-23.67a33.38,33.38,0,0,0-46.5,0q-9.42,9.42-9.43,23.67T438,173.67"/><path class="cls-1" d="M581.32,205.09q-23.05,0-39.17-15.92T526,150q0-23.25,16.13-39.17t39.17-15.92q23.25,0,39.27,15.92t16,39.17q0,23.25-16,39.17t-39.27,15.92m-23.26-31.42a33.39,33.39,0,0,0,46.51,0Q614,164.25,614,150t-9.42-23.67a33.39,33.39,0,0,0-46.51,0q-9.42,9.42-9.42,23.67t9.42,23.67"/><polygon class="cls-1" points="744.49 202.37 717.47 202.37 674.53 154.03 674.53 202.37 651.9 202.37 651.9 55.74 674.53 55.74 674.53 144.14 715.16 97.63 742.82 97.63 696.73 148.95 744.49 202.37"/><path class="cls-1" d="M767.53,126.4q0,5.17,5.81,8.17a85.12,85.12,0,0,0,13.93,5.5l16.65,5.13a28.75,28.75,0,0,1,14.24,9.73q5.72,7.09,5.72,17.9,0,15.09-11.62,23.67T783,205.09q-15.51,0-26.61-6.49a38.16,38.16,0,0,1-16.13-18l19.48-11.31q5.44,15.07,23.26,15.08t17.8-11.73q0-5-5.76-8.17a76,76,0,0,0-13.89-5.65l-16.65-5.13a29.82,29.82,0,0,1-14.29-9.43q-5.76-6.81-5.76-17.28,0-14.46,11-23.25t27.34-8.8A46.09,46.09,0,0,1,806,100.67a39.28,39.28,0,0,1,15.61,16l-19.06,10.69q-5.46-11.94-19.69-11.94a20,20,0,0,0-10.9,2.79,9.08,9.08,0,0,0-4.4,8.17"/><path class="cls-1" d="M897.82,94.91q21.57,0,36.87,16T950,150q0,23.25-15.29,39.17t-36.87,15.92q-23.88,0-36.65-17.59v56.76H838.54V97.63h22.63v15.08q12.76-17.79,36.65-17.8M870.59,174q9.43,9.54,23.67,9.53T917.93,174q9.44-9.53,9.43-24t-9.43-24q-9.42-9.54-23.67-9.54T870.59,126q-9.42,9.53-9.42,24t9.42,24"/><path class="cls-1" d="M1048.22,97.63h22.62V202.37h-22.62V187.29q-12.78,17.81-36.66,17.8-21.57,0-36.86-16T959.41,150q0-23.25,15.29-39.17t36.86-15.92q23.88,0,36.66,17.6ZM991.45,174q9.43,9.54,23.67,9.53t23.67-9.53q9.43-9.53,9.43-24t-9.43-24q-9.42-9.54-23.67-9.54T991.45,126Q982,135.55,982,150t9.42,24"/><path class="cls-1" d="M1141.43,205.09q-23.67,0-39.48-15.92T1086.13,150q0-23.46,15.82-39.28t39.48-15.81a54.27,54.27,0,0,1,27.86,7.33,47.35,47.35,0,0,1,18.85,19.69l-19.48,11.31a26.73,26.73,0,0,0-10.79-11.83,32,32,0,0,0-16.65-4.3,31.2,31.2,0,0,0-23.14,9.43q-9.33,9.42-9.33,23.46t9.33,23.46a31.24,31.24,0,0,0,23.14,9.43,32.07,32.07,0,0,0,16.65-4.4,28.66,28.66,0,0,0,11.21-11.73l19.48,11.1a49.82,49.82,0,0,1-19.27,19.9,54.27,54.27,0,0,1-27.86,7.33"/><path class="cls-1" d="M1215.79,159.64q2.52,11.94,11.52,18.32t22,6.39q18,0,27-13L1295,182.26q-15.49,22.83-45.87,22.83-25.56,0-41.27-15.6T1192.12,150q0-23.46,15.5-39.28t39.8-15.81q23,0,37.81,16.13T1300,150.21a69.77,69.77,0,0,1-.84,9.43Zm-.21-18.44h61.59q-2.31-12.76-10.58-19.27a30.48,30.48,0,0,0-19.38-6.49q-12.57,0-20.94,6.91t-10.69,18.85"/></g></g></svg>