<svg id="Layer_1" data-name="Layer 1" xmlns="http://www.w3.org/2000/svg" xmlns:xlink="http://www.w3.org/1999/xlink" viewBox="0 0 750 500"><defs><style>.cls-1{fill:none;}.cls-2{clip-path:url(#clip-path);}.cls-3{fill:url(#linear-gradient);}.cls-4{fill:#0078ff;opacity:0.4;}.cls-11,.cls-4{isolation:isolate;}.cls-5{fill:url(#linear-gradient-2);}.cls-6{fill:url(#linear-gradient-3);}.cls-7{fill:url(#linear-gradient-4);}.cls-8{fill:url(#linear-gradient-5);}.cls-9{fill:url(#linear-gradient-6);}.cls-10{fill:#ff3456;}.cls-11{fill:#fff;opacity:0.3;}</style><clipPath id="clip-path"><rect class="cls-1" width="750" height="500"/></clipPath><linearGradient id="linear-gradient" x1="62.5" y1="-6062.5" x2="687.5" y2="-5437.5" gradientTransform="matrix(1, 0, 0, -1, 0, -5500)" gradientUnits="userSpaceOnUse"><stop offset="0" stop-color="#00002b"/><stop offset="0.41" stop-color="#0e114c"/><stop offset="0.77" stop-color="#181c61"/><stop offset="1" stop-color="#1b2069"/></linearGradient><linearGradient id="linear-gradient-2" x1="144.1" y1="-5643.35" x2="144.1" y2="-5595.15" gradientTransform="matrix(1, 0, 0, -1, 0, -5500)" gradientUnits="userSpaceOnUse"><stop offset="0" stop-color="#ff3456"/><stop offset="0.23" stop-color="#e6334c"/><stop offset="0.49" stop-color="#d23344"/><stop offset="0.75" stop-color="#c53240"/><stop offset="1" stop-color="#c1323e"/></linearGradient><linearGradient id="linear-gradient-3" x1="690.3" y1="-5909" x2="690.3" y2="-5860.8" xlink:href="#linear-gradient-2"/><linearGradient id="linear-gradient-4" x1="591.89" y1="-5726.54" x2="591.89" y2="-5690.94" gradientTransform="matrix(1, -0.01, -0.01, -1, -57.68, -5508.27)" xlink:href="#linear-gradient-2"/><linearGradient id="linear-gradient-5" x1="-10.79" y1="-5821.39" x2="-10.79" y2="-5790.69" gradientTransform="matrix(1, -0.01, -0.01, -1, -57.68, -5508.27)" xlink:href="#linear-gradient-2"/><linearGradient id="linear-gradient-6" x1="487.33" y1="-5625.6" x2="487.33" y2="-5560.66" gradientTransform="matrix(1, -0.01, -0.01, -1, -57.68, -5508.27)" xlink:href="#linear-gradient-2"/></defs><title>routing</title><g class="cls-2"><rect class="cls-3" width="750" height="500"/><path class="cls-1" d="M302.5,101.8l-47.2.3L235.1,224.6v.1a4.33,4.33,0,0,1-.1.5c0,.1-.1.2-.1.3s-.1.3-.2.5-.1.2-.1.4-.1.3-.2.4-.1.3-.2.4-.1.2-.2.3a.76.76,0,0,0-.2.4c-.1.1-.1.2-.2.3s-.2.3-.3.4-.2.2-.2.3a1.38,1.38,0,0,0-.3.4l-.3.3-.3.3a1.38,1.38,0,0,1-.4.3c-.1.1-.2.2-.3.2s-.3.2-.4.3-.2.1-.3.2a.76.76,0,0,1-.4.2c-.1.1-.2.1-.3.2s-.3.1-.4.2-.2.1-.4.1-.3.1-.4.1-.3.1-.4.1a.76.76,0,0,0-.4.1c-.2,0-.3.1-.5.1h-.9l-91.8.6L107,399.5l190.4-1.2h0l47.2-.3,20.2-122.5v-.1a4.33,4.33,0,0,1,.1-.5c0-.1.1-.2.1-.3s.1-.3.2-.5.1-.2.1-.4.1-.3.2-.4.1-.3.2-.4.1-.2.2-.3a.76.76,0,0,0,.2-.4c.1-.1.1-.2.2-.3s.2-.3.3-.4.2-.2.2-.3a1.38,1.38,0,0,0,.3-.4l.3-.3.3-.3a1.38,1.38,0,0,1,.4-.3c.1-.1.2-.2.3-.2s.3-.2.4-.3.2-.1.3-.2a.76.76,0,0,1,.4-.2c.1-.1.2-.1.3-.2s.3-.1.4-.2.2-.1.4-.1.3-.1.4-.1.3-.1.4-.1a.76.76,0,0,0,.4-.1c.2,0,.3-.1.5-.1h.9l91.8-.6,28-167-190.5,1.3Z"/><path class="cls-4" d="M584.5,203.7l14.4-.1h1.6a.76.76,0,0,0,.4-.1.76.76,0,0,0,.4-.1c.1,0,.2-.1.4-.1h.1c.1,0,.2-.1.3-.1s.2-.1.3-.1.2-.1.4-.2.2-.1.3-.1.3-.1.4-.2a.35.35,0,0,0,.2-.1c.2-.1.3-.2.5-.3a.1.1,0,0,0,.1-.1,2.65,2.65,0,0,0,.6-.5h0a1.21,1.21,0,0,0,.5-.5c.1,0,.1-.1.2-.2a1.38,1.38,0,0,0,.3-.4c.1-.1.1-.2.2-.2l.3-.3c.1-.1.1-.2.2-.3s.1-.2.2-.3.1-.2.2-.3l.1-.1,2.2-4.2,5.3-10L660,99.5l90-.6V81.1l-80.5.5L713.1,0H693L651.9,77l-4.2,7.9a10.62,10.62,0,0,0-1.8,3.3l-46.5,87.2-4.3,8.1-1.3,2.4h-2.3l-8.8.1-85.8.5,13.2-80.1,8-48.3L527.6,0h-18l-7.9,47.5-2.2,13.4-3.6,21.8-21.5.1-13.6.2-113.7.7h0l-99.3.6h-1c-.2,0-.3.1-.5.1a.6.6,0,0,0-.4.1c-.1,0-.3.1-.4.1s-.3.1-.4.1-.3.1-.4.1-.3.1-.4.2-.2.1-.3.2-.3.1-.4.2-.2.1-.3.2-.3.2-.4.3-.2.2-.3.2a1.38,1.38,0,0,1-.4.3l-.3.3-.3.3a1.38,1.38,0,0,0-.3.4c-.1.1-.2.2-.2.3s-.2.3-.3.4-.1.2-.2.3a.76.76,0,0,0-.2.4c-.1.1-.1.2-.2.3s-.1.3-.2.4-.1.3-.2.4-.1.2-.1.4-.1.3-.2.5-.1.2-.1.3a4.33,4.33,0,0,1-.1.5v.1L219.1,214.2l-81.2.5,11.9-72,1.9-11.4,3.5-21.3,1.9-11.4L173.1,0h-18L139.3,95.7l-1.9,11.2-3.6,22-1.9,11.2-12.4,74.8-75.4.5-32.3.2L47.3,0h-18L27,13.9l-103.3.6L-150,15V32.8l73.8-.5,100.3-.6-30.4,184-92.8.6L-79.3,96.8v-.3a.9.9,0,0,1,.1-.5V94.2a.9.9,0,0,0-.1-.5.6.6,0,0,0-.1-.4c0-.1-.1-.3-.1-.4s-.1-.3-.1-.4-.1-.2-.1-.4-.1-.3-.2-.5-.1-.2-.1-.3-.2-.3-.2-.5-.1-.2-.2-.3-.2-.3-.3-.4-.1-.2-.2-.3-.2-.3-.3-.4l-.3-.3-.3-.3-.3-.3-.3-.3-.3-.3a.52.52,0,0,0-.4-.2c-.1-.1-.2-.1-.4-.2a.76.76,0,0,0-.4-.2c-.1-.1-.2-.1-.3-.2s-.3-.1-.5-.2a1.34,1.34,0,0,1-.5.1c-.2-.1-.4-.1-.5-.2a.37.37,0,0,1-.3-.1c-.2,0-.4-.1-.6-.1h-.3a.9.9,0,0,1-.5-.1h-.8l-61.8.3v17.8l51.4-.3-18.5,112.1-32.9.2v17.8l40.5-.3,110.8-.7,42.9-.3,72.4-.5-10.4,63-93.5.6H-.4a.76.76,0,0,0-.4.1c-.2.1-.2,0-.4.1s-.2.1-.4.1-.2.1-.4.1-.2.1-.3.1-.2.1-.4.2-.2.1-.3.1-.3.1-.4.2a.35.35,0,0,0-.2.1c-.2.1-.3.2-.5.3a.1.1,0,0,0-.1.1,2.65,2.65,0,0,0-.6.5h0c-.2.2-.4.3-.5.5l-.2.2a1.38,1.38,0,0,0-.3.4c-.1.1-.1.2-.2.2l-.3.3c-.1.1-.1.2-.2.3s-.1.2-.2.3-.1.2-.2.3l-.1.1-1.6,3-3,5.7-48.4,91-90,.6v17.8l80.5-.5L-113.1,500H-93l41.1-77,4.2-7.9a10.62,10.62,0,0,0,1.8-3.3L6.2,314.2l97-.6L72.4,500h18l13.7-82.7,148.9-.9h0l99.3-.6h1c.2,0,.3-.1.5-.1a.6.6,0,0,0,.4-.1c.1,0,.3-.1.4-.1s.3-.1.4-.1.3-.1.4-.1.3-.1.4-.2.2-.1.3-.2.3-.1.4-.2.2-.1.3-.2.3-.2.4-.3.2-.2.3-.2a1.38,1.38,0,0,1,.4-.3l.3-.3.3-.3a1.38,1.38,0,0,0,.3-.4c.1-.1.2-.2.2-.3s.2-.3.3-.4.1-.2.2-.3a.76.76,0,0,0,.2-.4c.1-.1.1-.2.2-.3s.1-.3.2-.4.1-.3.2-.4.1-.2.1-.4.1-.3.2-.5.1-.2.1-.3a4.33,4.33,0,0,1,.1-.5v-.1l14.8-89.3h0l3.7-22.5,1.8-10.7h8.5l72.7-.5L427,500h18l35.5-214.9,75.4-.5,32.3-.2L552.7,500h18l2.3-13.9,103.3-.7L750,485V467.2l-73.8.5-100.3.6,30.4-184,92.8-.6-12.8,77.4L684.5,372l-3.8,23.2-1.3,8v.3a.9.9,0,0,1-.1.5v1.7a.9.9,0,0,0,.1.5v.4c0,.1.1.3.1.4s.1.3.1.4.1.2.1.4.1.3.2.4.1.2.2.3.2.3.2.5.1.2.2.3.2.3.3.4.1.2.2.3.2.3.3.4l.3.3.3.3.3.3.3.3.3.3.3.3c.1.1.2.1.3.2a.76.76,0,0,0,.4.2c.1.1.2.1.3.2s.3.1.5.2.2.1.3.1.4.1.5.2a.37.37,0,0,1,.3.1c.2,0,.4.1.6.1h.4a.9.9,0,0,1,.5.1h.8l61.8-.4V395.4l-38.1.2-12.5.1h-.8l3.1-19,1.9-11.8,13.4-81.3,32.9-.2V265.6l-40.5.3-110.8.7-42.9.3-72.4.5,10.4-63ZM465.4,267.4l-91.8.6h-.9a.9.9,0,0,0-.5.1.6.6,0,0,0-.4.1c-.1,0-.3.1-.4.1s-.3.1-.4.1-.3.1-.4.1-.3.1-.4.2-.2.1-.3.2-.3.2-.4.2-.2.1-.3.2-.3.2-.4.3-.2.2-.3.2a1.38,1.38,0,0,1-.4.3l-.3.3-.3.3a1.38,1.38,0,0,0-.3.4c-.1.1-.2.2-.2.3s-.2.3-.3.4-.1.2-.2.3a.76.76,0,0,0-.2.4c-.1.1-.1.2-.2.3s-.1.3-.2.4-.1.3-.2.4-.1.2-.1.4-.1.3-.2.5-.1.2-.1.3-.1.3-.1.5v.1l-4,24.2h0l-1.9,11.7L344.6,398l-47.2.3h0L107,399.5l27.6-166.9,91.8-.6h.9a.9.9,0,0,0,.5-.1.6.6,0,0,0,.4-.1c.1,0,.3-.1.4-.1s.3-.1.4-.1.2-.1.4-.1.3-.1.4-.2.2-.1.3-.2.3-.1.4-.2.2-.1.3-.2.3-.2.4-.3.2-.2.3-.2a1.38,1.38,0,0,1,.4-.3l.3-.3.3-.3a1.38,1.38,0,0,0,.3-.4c.1-.1.2-.2.2-.3s.2-.3.3-.4.1-.2.2-.3a.76.76,0,0,0,.2-.4c.1-.1.1-.2.2-.3s.1-.3.2-.4.1-.3.2-.4.1-.2.1-.4.1-.3.2-.5.1-.2.1-.3.1-.3.1-.5v-.1L255,102.1l47.2-.3h0l166.4-1.1,24-.1-1.8,10.7Z"/><path class="cls-5" d="M156.7,98.7a23.74,23.74,0,0,0-12.6-3.6,26.26,26.26,0,0,0-4.9.5,24.1,24.1,0,0,0,4.9,47.7,23.28,23.28,0,0,0,5.3-.6,24.06,24.06,0,0,0,7.3-44Zm-5.4,32.7a13.68,13.68,0,0,1-7.2,2,14.5,14.5,0,0,1-10.4-4.5,14.17,14.17,0,0,1,3.7-22,14,14,0,0,1,6.8-1.7,13.69,13.69,0,0,1,10.7,5,13.93,13.93,0,0,1-3.6,21.2Z"/><path class="cls-6" d="M703.7,364.9a23.59,23.59,0,0,0-13.4-4.1,26,26,0,0,0-4,.3,24.13,24.13,0,0,0-6.9,45.3,23.68,23.68,0,0,0,10.9,2.6,24.09,24.09,0,0,0,24.1-24.1A23.94,23.94,0,0,0,703.7,364.9ZM690.3,399a14.15,14.15,0,0,1-14.1-14.1,14.17,14.17,0,0,1,8.3-12.9,14,14,0,0,1,5.8-1.2,14.16,14.16,0,0,1,11.5,5.9,13.89,13.89,0,0,1,2.7,8.2,14,14,0,0,1-5,10.8A14.39,14.39,0,0,1,690.3,399Z"/><path class="cls-7" d="M614.5,184.7a17.61,17.61,0,0,0-15.2-9.3h-.7a18,18,0,0,0-16.1,10.5,17.06,17.06,0,0,0-1.5,7.5,17.42,17.42,0,0,0,3.4,10.3A17.82,17.82,0,0,0,616.6,193,15.79,15.79,0,0,0,614.5,184.7Zm-12.9,18.5h0a11.71,11.71,0,0,1-2.6.4h-.2a10.39,10.39,0,0,1-7.4-17.7,11.35,11.35,0,0,1,3.6-2.4,9.37,9.37,0,0,1,3.7-.7,10.27,10.27,0,0,1,10.5,10.3,9.7,9.7,0,0,1-.1,1.7A10,10,0,0,1,601.6,203.2Z"/><path class="cls-8" d="M12.6,296.3A15.29,15.29,0,0,0-2.9,282a15.32,15.32,0,0,0-15.2,15.5,15.56,15.56,0,0,0,6.4,12.3,15.89,15.89,0,0,0,9.1,2.9,15.32,15.32,0,0,0,15.2-15.5A1.39,1.39,0,0,0,12.6,296.3Zm-15.2,10a9,9,0,0,1-6-2.2,9.06,9.06,0,0,1-3.1-6.7,9,9,0,0,1,8.9-9.1,8.93,8.93,0,0,1,9,8c0,.3.1.6.1.9A8.9,8.9,0,0,1-2.6,306.3Z"/><path class="cls-9" d="M518,58.1a32.75,32.75,0,0,0-16.3-10.6,34.43,34.43,0,0,0-9.1-1.2,32.48,32.48,0,0,0-32.1,32.8,23.4,23.4,0,0,0,.3,3.8,32.37,32.37,0,0,0,30.4,28.2h0a14.72,14.72,0,0,0,2.1,0,32.85,32.85,0,0,0,16.7-4.8,32.45,32.45,0,0,0,15.4-28A31.54,31.54,0,0,0,518,58.1ZM493.2,97.8a19,19,0,0,1-18.8-14.9A16.11,16.11,0,0,1,474,79a19.05,19.05,0,1,1,19.2,18.8Z"/><polygon class="cls-10" points="506.1 179.81 447.78 208.87 473.34 217.84 485.91 241.76 506.1 179.81"/><polygon class="cls-11" points="473.34 217.84 506.1 179.81 485.91 241.76 473.34 217.84"/></g></svg>