<svg xmlns="http://www.w3.org/2000/svg" xmlns:xlink="http://www.w3.org/1999/xlink" width="100" height="100" viewBox="0 0 100 100">
  <defs>
    <clipPath id="clip-Artboard_9">
      <rect width="100" height="100"/>
    </clipPath>
  </defs>
  <g id="Artboard_9" data-name="Artboard – 9" clip-path="url(#clip-Artboard_9)">
    <rect width="100" height="100" fill="#fff"/>
    <g id="Rectangle_910" data-name="Rectangle 910" fill="none" stroke="#000" stroke-width="4">
      <rect width="75" height="60" rx="8" stroke="none"/>
      <rect x="2" y="2" width="71" height="56" rx="6" fill="none"/>
    </g>
    <circle id="Ellipse_267" data-name="Ellipse 267" cx="20" cy="20" r="20" transform="translate(18 10)"/>
    <path id="Path_50" data-name="Path 50" d="M-17.016-56.936a3.988,3.988,0,0,0-.07.909c0,2.8,1.784,5.6,7.169,5.6h2.168c2.413,0,3.6.664,3.6,2.588a6.407,6.407,0,0,1-.07.734h-13.6v3.217h3.637v12.9c0,3.043,1.889,5.386,5.561,5.386A9.111,9.111,0,0,0,.471-34.273c0-3.847-2.483-5.945-5.561-5.945a5.414,5.414,0,0,0-3.567,1.364l1.784,3.113a2.02,2.02,0,0,1,1.609-.8c1.224,0,1.889.874,1.889,2.308a5.2,5.2,0,0,1-4.931,5A1.84,1.84,0,0,1-10.3-31.3v-12.59H2.954v-3.217H-.334c.035-.35.07-.664.07-.979,0-3.812-3.078-5.7-6.75-5.7H-9.706c-2.973,0-3.6-1.434-3.6-2.8a5.26,5.26,0,0,1,.1-1.014Z" transform="translate(46 71)" fill="#fff"/>
    <g id="Rectangle_909" data-name="Rectangle 909" transform="translate(25 40)" stroke="#000" stroke-width="2">
      <rect width="75" height="60" rx="8" stroke="none"/>
      <rect x="1" y="1" width="73" height="58" rx="7" fill="none"/>
    </g>
    <circle id="Ellipse_266" data-name="Ellipse 266" cx="20" cy="20" r="20" transform="translate(43 50)" fill="#fff"/>
    <path id="Path_49" data-name="Path 49" d="M-17.016-56.936a3.988,3.988,0,0,0-.07.909c0,2.8,1.784,5.6,7.169,5.6h2.168c2.413,0,3.6.664,3.6,2.588a6.407,6.407,0,0,1-.07.734h-13.6v3.217h3.637v12.9c0,3.043,1.889,5.386,5.561,5.386A9.111,9.111,0,0,0,.471-34.273c0-3.847-2.483-5.945-5.561-5.945a5.414,5.414,0,0,0-3.567,1.364l1.784,3.113a2.02,2.02,0,0,1,1.609-.8c1.224,0,1.889.874,1.889,2.308a5.2,5.2,0,0,1-4.931,5A1.84,1.84,0,0,1-10.3-31.3v-12.59H2.954v-3.217H-.334c.035-.35.07-.664.07-.979,0-3.812-3.078-5.7-6.75-5.7H-9.706c-2.973,0-3.6-1.434-3.6-2.8a5.26,5.26,0,0,1,.1-1.014Z" transform="translate(71 111)"/>
  </g>
</svg>
